<?xml version="1.0" encoding="utf-8"?>
<!-- Generator: Adobe Illustrator 22.1.0, SVG Export Plug-In . SVG Version: 6.00 Build 0)  -->
<svg version="1.1" id="Layer_1" xmlns="http://www.w3.org/2000/svg" xmlns:xlink="http://www.w3.org/1999/xlink" x="0px" y="0px"
	 viewBox="0 0 500 500" style="enable-background:new 0 0 500 500;" xml:space="preserve">
<style type="text/css">
	.st0{fill:#800000;stroke:#FFFFFF;stroke-width:2.5;}
	.st1{fill:none;stroke:#FFFFFF;stroke-width:2.5;}
</style>
<g>
	<circle class="st0" cx="251" cy="251" r="243"/>
	<path class="st1" d="M146.3,424.2c0.1,0.5,0.2,1.1,0.4,1.6c1.3-0.3,2.9-0.4,4-1.1c16.2-10.3,32.8-20,50.8-26.9
		c13-5,26.1-9.5,38-17.1c8.2-5.3,17-10,25.9-14.1c12.6-5.8,23.9-13.3,33.6-23.2c14.6-14.9,30.6-28.1,47.5-40.3
		c6.3-4.6,12.2-9.8,18.1-14.8c1.4-1.2,2.1-3.1,3.2-4.7c2.3-3.6,4-7.8,7.1-10.6c7.1-6.3,8.7-13.7,6.9-22.5
		c-1.5-7.3-3.3-14.5-4.6-21.8c-2-10.6-4.9-20.8-11.4-29.7c-2.2-3-3.4-6.1-3.3-9.9c0-2.5-1.1-5.2-2.3-7.4
		c-5.9-10.8-13.1-20.7-21.9-29.4c-1.7-1.7-1.8-3.1-1.5-5.3c0.6-3.6,1.8-7.7,0.6-10.8c-3.9-10-10.7-17.6-22-19.8
		c-11.7-2.3-23.4-1.7-35.2-0.6c-1.4,0.1-3.3,0-4.4-0.8c-4.2-3-8.8-3.2-13.4-1.8c-10.8,3.3-20,9.2-28.1,17c-0.8,0.7-1.5,1.6-2,2.5
		c-5.6,11.5-14.6,20.5-23,29.9c-14.3,15.9-23.9,34.1-28.7,54.9c-2.7,11.7-5.5,23.4-8.4,35c-0.8,3.3-1.6,7-3.5,9.7
		c-8.4,11.7-19,20.6-33.2,24.5c-7.1,2-14.5,3.5-21.4,6.2c-16.2,6.2-32.3,13-48.3,19.6c-0.9,0.4-1.3,1.6-2,2.4
		c0.3,0.3,0.6,0.6,0.9,0.9c1.1-0.4,2.2-0.8,3.3-1.3c10.5-4.4,20.9-9.1,31.6-13.2c10.4-4,20.8-8.3,31.6-10.8
		c15.2-3.5,27-11.7,36.8-23.1c2.6-3,4.4-6.9,5.6-10.7c2.2-6.8,3.5-13.9,5.3-20.9c2.7-10.7,5-21.5,8.5-32c5.7-17,15.9-31.3,28.1-44.4
		c5.5-5.9,11.2-11.9,15-18.8c7.5-13.6,19.5-20.4,33.2-25.2c3.7-1.3,7.5-0.8,11,1.6c1.4,1,3.5,1.4,5.3,1.3c8.3-0.2,16.6-1.1,24.8-0.9
		c11.5,0.2,21.6,3.6,28.1,14.4c3.5,5.9,3.4,11.2,0.7,17.1c-5.1-2.1-10.4-3.3-14.2-8c-1.6-2-5.2-3.4-7.9-3.5
		c-5.8-0.2-11.7,0.6-17.6,1.1c-2.3,0.2-4.5,0.5-6.8,0.8c0,0.4,0,0.9-0.1,1.3c1.4,0.2,2.7,0.6,4.1,0.5c5.3-0.5,10.5-1.2,15.8-1.7
		c6.2-0.6,11,1.7,14.3,7.1c1.3,2.1,2.7,4.2,4.2,6.3c1,1.5,2.1,3,3.3,4.2c0.6,0.6,1.8,0.5,2.7,0.7c-0.3-0.8-0.5-1.6-1-2.3
		c-1.4-2-2.9-4-4.4-6c0.3-0.3,0.5-0.6,0.8-0.9c3.2,1.7,7.1,2.8,9.6,5.3c9,8.8,16.3,18.9,22.2,30c1,2,1.2,4.3,1.8,6.5
		c-0.5,0.3-1,0.5-1.5,0.8c-2.7-3.2-5.9-6.1-7.9-9.7c-3-5.5-7-8.5-13.1-9.5c-4.8-0.8-9.6-2.1-14.4-3.1c-0.4-0.1-0.9,0.1-2.4,0.4
		c1.6,1.2,2.4,2.2,3.4,2.5c3.7,0.9,7.5,1.9,11.3,2.3c6.8,0.7,11.4,3.9,13.9,10.3c1.3,3.2,2.9,6.3,4.6,9.4c0.6,1.1,1.7,1.9,2.6,2.9
		c0.3-0.2,0.7-0.4,1-0.6c-0.6-1.5-1.1-2.9-1.8-4.6c7,5.5,15.7,20.5,16,27.6c-0.9-1.4-1.6-2.5-2.2-3.6c-0.4,0.1-0.8,0.3-1.3,0.4
		c0.4,1.4,0.4,3.1,1.1,4.2c4.1,5.8,6.4,12,4.8,19.3c-0.5,2.2,0.1,3.9,3,2.4c0.7,3,1.2,5.8,1.9,8.4c2.1,8.7,0.4,16-7,21.9
		c-2.3,1.9-4.6,4.6-5.5,7.4c-1.5,4.8-4.5,8.1-8.2,11.1c-3.1,2.5-6.1,5.1-9.3,7.4c-19.5,14-37.9,29.1-54.7,46.2
		c-7.4,7.5-16.1,13.2-25.6,17.9c-9.9,4.8-19.5,10.3-29.3,15.4c-8.5,4.4-17,8.8-25.7,12.9c-5.6,2.6-11.6,4.6-17.4,6.8
		C178.6,404,162.7,414.4,146.3,424.2z"/>
	<path class="st1" d="M146.3,424.2c16.4-9.7,32.3-20.2,50.2-27.1c5.8-2.2,11.8-4.2,17.4-6.8c8.7-4,17.2-8.5,25.7-12.9
		c9.8-5.1,19.4-10.6,29.3-15.4c9.5-4.7,18.2-10.4,25.6-17.9c16.8-17.1,35.3-32.3,54.7-46.2c3.2-2.3,6.2-4.9,9.3-7.4
		c3.7-3,6.7-6.2,8.2-11.1c0.8-2.8,3.1-5.5,5.5-7.4c7.3-5.9,9.1-13.2,7-21.9c-0.7-2.7-1.2-5.4-1.9-8.4c-3,1.5-3.5-0.2-3-2.4
		c1.6-7.3-0.7-13.4-4.8-19.3c-0.8-1.1-0.8-2.8-1.1-4.2c0.4-0.1,0.8-0.3,1.3-0.4c0.7,1.1,1.4,2.2,2.2,3.6c-0.3-7.2-9-22.1-16-27.6
		c0.7,1.7,1.2,3.2,1.8,4.6c-0.3,0.2-0.7,0.4-1,0.6c-0.9-1-2-1.8-2.6-2.9c-1.6-3.1-3.3-6.2-4.6-9.4c-2.5-6.4-7.1-9.6-13.9-10.3
		c-3.8-0.4-7.5-1.3-11.3-2.3c-1-0.2-1.8-1.3-3.4-2.5c1.6-0.3,2-0.5,2.4-0.4c4.8,1,9.5,2.3,14.4,3.1c6.1,1,10.1,4,13.1,9.5
		c2,3.6,5.2,6.5,7.9,9.7c0.5-0.3,1-0.5,1.5-0.8c-0.6-2.2-0.8-4.6-1.8-6.5c-5.8-11.1-13.2-21.2-22.2-30c-2.5-2.5-6.3-3.6-9.6-5.3
		c-0.3,0.3-0.5,0.6-0.8,0.9c1.5,2,3,4,4.4,6c0.5,0.7,0.7,1.5,1,2.3c-0.9-0.2-2.1-0.2-2.7-0.7c-1.3-1.2-2.3-2.7-3.3-4.2
		c-1.4-2.1-2.8-4.2-4.2-6.3c-3.3-5.4-8.1-7.7-14.3-7.1c-5.3,0.5-10.5,1.2-15.8,1.7c-1.3,0.1-2.7-0.3-4.1-0.5c0-0.4,0-0.9,0.1-1.3
		c2.3-0.3,4.5-0.6,6.8-0.8c5.8-0.5,11.7-1.3,17.6-1.1c2.7,0.1,6.3,1.5,7.9,3.5c3.8,4.7,9.1,5.9,14.2,8c2.8-5.9,2.8-11.2-0.7-17.1
		c-6.5-10.8-16.6-14.2-28.1-14.4c-8.3-0.2-16.5,0.7-24.8,0.9c-1.8,0.1-3.9-0.3-5.3-1.3c-3.5-2.4-7.3-2.9-11-1.6
		c-13.7,4.8-25.8,11.6-33.2,25.2c-3.8,6.9-9.6,12.9-15,18.8C203,172.7,192.8,187,187.1,204c-3.5,10.4-5.7,21.3-8.5,32
		c-1.8,7-3.1,14.1-5.3,20.9c-1.2,3.8-3.1,7.7-5.6,10.7c-9.8,11.5-21.6,19.6-36.8,23.1c-10.8,2.5-21.2,6.8-31.6,10.8
		c-10.6,4.1-21,8.8-31.6,13.2c-1.1,0.5-2.2,0.8-3.3,1.3c-0.3-0.3-0.6-0.6-0.9-0.9c0.7-0.8,1.1-2,2-2.4c16.1-6.6,32.1-13.4,48.3-19.6
		c6.9-2.7,14.2-4.2,21.4-6.2c14.2-4,24.8-12.8,33.2-24.5c1.9-2.7,2.7-6.4,3.5-9.7c2.9-11.6,5.7-23.3,8.4-35
		c4.8-20.8,14.5-39,28.7-54.9c8.4-9.4,17.4-18.4,23-29.9c0.5-0.9,1.2-1.8,2-2.5c8.1-7.8,17.3-13.7,28.1-17c4.6-1.4,9.2-1.3,13.4,1.8
		c1.1,0.8,2.9,0.9,4.4,0.8c11.8-1.1,23.5-1.7,35.2,0.6c11.3,2.2,18,9.8,22,19.8c1.2,3.1,0,7.2-0.6,10.8c-0.4,2.2-0.3,3.6,1.5,5.3
		c8.7,8.7,15.9,18.6,21.9,29.4c1.2,2.3,2.3,5,2.3,7.4c0,3.8,1.1,6.9,3.3,9.9c6.5,8.8,9.4,19.1,11.4,29.7c1.4,7.3,3.1,14.5,4.6,21.8
		c1.8,8.7,0.2,16.2-6.9,22.5c-3.1,2.7-4.8,7-7.1,10.6c-1,1.6-1.8,3.5-3.2,4.7c-5.9,5.1-11.8,10.3-18.1,14.8
		c-16.9,12.2-32.9,25.4-47.5,40.3c-9.7,9.9-21,17.3-33.6,23.2c-8.9,4.1-17.6,8.8-25.9,14.1c-11.9,7.6-25,12.2-38,17.1
		c-18.1,6.9-34.6,16.6-50.8,26.9c-1.1,0.7-2.6,0.7-4,1.1C146.5,425.2,146.4,424.7,146.3,424.2z"/>
</g>
</svg>
