<?xml version="1.0" encoding="utf-8"?>
<!-- Generator: Adobe Illustrator 22.1.0, SVG Export Plug-In . SVG Version: 6.00 Build 0)  -->
<svg version="1.1" id="Layer_1" xmlns="http://www.w3.org/2000/svg" xmlns:xlink="http://www.w3.org/1999/xlink" x="0px" y="0px"
	 viewBox="0 0 100 100" style="enable-background:new 0 0 100 100;" xml:space="preserve">
<style type="text/css">
	.st0{fill:#008000;stroke:#FFFFFF;stroke-width:2.5;}
	.st1{fill:none;stroke:#FFFFFF;stroke-width:2.5;}
</style>
<g>
	<circle class="st0" cx="50" cy="50" r="48"/>
	<path class="st1" d="M89.4,49.4c-0.1,0.4-0.3,0.7-0.4,1.1c-1.4,4.4-5.7,6.7-10.2,5.5c-3.3-0.9-6.6-1.9-10-2.6
		c-4.1-0.9-8.1-0.1-12,1.1c-0.3,0.1-0.7,0.7-0.7,1c-0.3,5.6,0.8,11,3.7,15.8c1,1.7,2,3.4,3,5.1c2.9,4.6,0.6,11.2-5,12.4
		c-0.2,0-0.3,0.2-0.5,0.2c-0.6,0-1.2,0-1.8,0c-2.6-0.8-4.8-1.9-6.4-4.2c-2.8-4.1-1.8-9.2,2.3-11.6c0.7-0.4,1.6-0.6,2.5-0.8
		c1.6-0.3,2.1-1,1.6-2.5c-0.4-1.1-0.9-2.2-1.3-3.3c-1.3-3.4-2.7-6.8-4-10.3c-0.3-0.9-0.8-1.3-1.8-1.3C40.6,54.8,32.8,54.4,25,54
		c-2.2-0.1-4.5-0.3-6.6-0.8c-3.4-0.8-6-3.2-6.9-6.1c12.1,0.4,24.1,0.8,36.4,1.2c-3.4-11.7-6.7-23.1-10-34.7c3.1,0.4,5.3,1.8,6.9,4.2
		c1,1.5,1.8,3.1,2.3,4.8c2.6,8.2,5.1,16.5,7.6,24.7c0.3,1,0.7,1.4,1.8,1.5c4.3,0.5,8.5,1.1,12.7,1.6c0.5,0.1,1,0.1,1.6,0.1
		c1.4,0,1.9-0.6,1.8-2c-0.7-6.4,5.3-9.9,10.7-7.9c3,1.1,5.1,3.2,5.9,6.4c0.1,0.2,0.2,0.4,0.3,0.6C89.4,48.2,89.4,48.8,89.4,49.4z
		 M80.6,52.7c2.9,0,5-2,5-4.6c0-2.3-2.4-4.6-5-4.6c-2.6,0-4.7,2.2-4.8,4.8C75.8,50.8,77.9,52.7,80.6,52.7z M51.4,80.4
		c0,2.5,2.2,4.9,4.7,4.9c2.4,0,4.3-2,4.2-4.6c0-2.7-2-5-4.4-5C53.5,75.8,51.4,77.9,51.4,80.4z"/>
</g>
</svg>
