<?xml version="1.0" encoding="utf-8"?>
<!-- Generator: Adobe Illustrator 22.1.0, SVG Export Plug-In . SVG Version: 6.00 Build 0)  -->
<svg version="1.1" id="Layer_1" xmlns="http://www.w3.org/2000/svg" xmlns:xlink="http://www.w3.org/1999/xlink" x="0px" y="0px"
	 viewBox="0 0 100 100" style="enable-background:new 0 0 100 100;" xml:space="preserve">
<style type="text/css">
	.st0{fill:#000080;stroke:#FFFFFF;stroke-width:2.5;}
	.st1{fill:none;stroke:#FFFFFF;stroke-width:2.5;}
	.st2{fill:#008000;stroke:#FFFFFF;stroke-width:2.5;}
</style>
<g>
	<circle class="st0" cx="50" cy="50" r="48"/>
	<path class="st1" d="M56.3,15.5c0,8.7,0,17.3,0,26.1c7.2-1.1,14.3-2.1,21.5-3.2c0,14.9,0,29.6,0,44.4c-17,0-34,0-51.1,0
		c0-22.4,0-44.8,0-67.3C36.6,15.5,46.4,15.5,56.3,15.5z"/>
	<line class="st1" x1="77.9" y1="38.4" x2="56.3" y2="15.5"/>
</g>
<g>
	<circle class="st2" cx="49.6" cy="49.6" r="48.4"/>
	<path class="st1" d="M32,81.9c0,0.1,0.1,0.2,0.1,0.3c0.3-0.1,0.6,0,0.8-0.2c1.2-0.6,2.4-1.3,3.7-2c0.3-0.2,0.7-0.3,1-0.4
		c0.8-0.2,1.7-0.3,2.5-0.7c1.7-0.9,3.4-1.8,5.1-2.8c4.3-2.7,7.9-6.2,11.8-9.4c0.2-0.2,0.3-0.4,0.4-0.7c0.1-0.7,0.5-1.2,1.1-1.5
		c0.8-0.4,1.6-0.8,2.5-1.2c2.9-1.1,4.1-5.1,1.9-7.3c-0.4-0.4-0.3-0.7,0-1.1c0.4-0.7,0.9-1.3,1.2-2c0.5-0.9,0.6-1.8,0.2-2.8
		c-0.5-1.3-1.5-2.1-2.6-2.8c-0.9-0.5-1.7-1-2.8-0.6c-0.1,0.1-0.4-0.2-0.6-0.2c0.1-0.2,0.1-0.4,0.3-0.5c0.4-0.3,0.9-0.7,1.4-0.9
		c3.2-1.7,6.3-3.4,9.1-5.7c3.2-2.6,6.7-4.7,10.1-7c0.8-0.6,1.7-1.1,2.5-1.8c0.3-0.2,0.6-0.7,0.6-1.1c0.4-2-1.5-4.4-3.8-3.7
		c-2.4,0.7-4.6,1.5-6.7,2.8c-1.1,0.6-2.2,1.2-3.3,1.8c-4,2.2-8.2,4.1-11.8,7c-0.7,0.5-1.4,1-2.1,1.4c-0.5,0.3-0.8,0.2-1.1-0.3
		c-0.5-1.1-0.5-2.3-0.1-3.4c0.7-2.1,1.3-4.3,2.2-6.3c1.5-3.6,3.2-7.1,4.8-10.6c0.4-1,0.9-2,1.2-3.1c0.3-1.2-0.1-2.3-1-3
		c-1-0.7-2.1-0.7-3-0.1c-0.6,0.4-1.3,0.9-1.7,1.5c-3.5,5-7.1,9.9-9.5,15.5c-0.7,1.7-1.5,3.4-2.3,5c-0.5,1-1.1,1.9-1.9,2.7
		c-0.9,0.9-1.6,2-2.1,3.1c-0.4,0.9-1.1,1.8-1.7,2.5c-1,1.2-2.2,2.4-3.1,3.6c-3.7,4.8-7.3,9.5-10.9,14.3c-0.4,0.5-1,1-1.6,1.4
		c-1.9,1-3.8,1.9-5.8,2.9c-0.2,0.1-0.3,0.2-0.5,0.3c0,0.1,0,0.2,0,0.2c0.2,0,0.4,0,0.6-0.1c1.9-0.9,3.9-1.9,5.8-2.8
		c0.8-0.4,1.4-0.9,1.9-1.6c0.9-1.2,1.8-2.5,2.7-3.7c3.6-4.8,7.1-9.6,11.2-14c0.8-0.9,1.4-1.8,1.9-2.9c0.4-0.8,0.9-1.7,1.5-2.4
		c1.2-1.2,2.1-2.4,2.7-3.9c0.4-0.8,0.8-1.6,1.1-2.5c2.5-6.1,6.3-11.5,10.1-16.9c0.5-0.7,1.1-1.4,1.8-1.8c1.7-1,3.3-0.1,3.4,1.9
		c0,0.5-0.1,1.1-0.3,1.6c-0.5,1.1-1,2.3-1.6,3.4c-2.7,5.1-4.6,10.5-6.4,16c-0.4,1.2-0.3,2.4,0.3,3.6c0.4,0.8,0.8,0.9,1.6,0.5
		c0.9-0.5,1.8-1.2,2.7-1.8c2.1-1.5,4.2-3,6.5-4.1c2.8-1.4,5.6-2.9,8.3-4.5c2-1.2,4.2-1.9,6.4-2.6c1.7-0.5,3.4,1.2,3.2,2.9
		c0,0.4-0.3,0.9-0.6,1.1c-1.1,0.8-2.3,1.6-3.4,2.3c-3.2,2.2-6.4,4.2-9.5,6.6c-2.1,1.7-4.4,3.2-6.8,4.4c-0.7,0.4-1.5,0.8-2.2,1.2
		c-0.5,0.3-1,0.6-1.4,1c-0.2,0.2-0.3,0.6-0.2,0.7c0.1,0.3,0.5,0.5,0.8,0.7c0.2,0.1,0.5-0.1,0.7,0c0.5,0,1-0.1,1.4,0.1
		c0.9,0.5,1.8,1.1,2.5,1.8c1,1,1.1,2.2,0.5,3.5c-0.4,0.8-1,1.6-1.5,2.5c-0.8-0.7-1.6-1.3-2.4-1.9c-0.1-0.1-0.2-0.1-0.3-0.2
		c0,0.1-0.1,0.4,0,0.4c0.3,0.3,0.6,0.5,0.9,0.8c0.8,0.8,1.7,1.5,2.4,2.3c1.3,1.6,1,4-0.5,5.4c-0.1,0.1-0.3,0.3-0.4,0.3
		c-1.2-0.1-2.3,0.3-3,1.2c-0.7,0.8-1.8,1.2-1.8,2.4c0,0.2-0.2,0.3-0.4,0.5c-2.1,1.8-4.2,3.6-6.3,5.3c-4,3.1-7.9,6.3-13.1,7.6
		C35.2,79.9,33.7,81.1,32,81.9z"/>
	<path class="st1" d="M32,81.9c1.6-0.9,3.2-2.1,5-2.5c5.2-1.2,9.1-4.4,13.1-7.6c2.2-1.7,4.2-3.5,6.3-5.3c0.2-0.1,0.4-0.3,0.4-0.5
		c0.1-1.2,1.2-1.7,1.8-2.4c0.8-0.9,1.8-1.4,3-1.2c0.1,0,0.3-0.1,0.4-0.3c1.6-1.4,1.9-3.8,0.5-5.4c-0.7-0.9-1.6-1.6-2.4-2.3
		c-0.3-0.3-0.6-0.5-0.9-0.8c-0.1-0.1,0-0.3,0-0.4c0.1,0.1,0.2,0.1,0.3,0.2c0.8,0.6,1.5,1.3,2.4,1.9c0.5-0.9,1-1.6,1.5-2.5
		c0.7-1.3,0.5-2.5-0.5-3.5c-0.7-0.7-1.6-1.3-2.5-1.8c-0.4-0.2-0.9-0.1-1.4-0.1c-0.2,0-0.5,0.1-0.7,0c-0.3-0.1-0.6-0.4-0.8-0.7
		c-0.1-0.2,0.1-0.6,0.2-0.7c0.4-0.4,0.9-0.7,1.4-1c0.7-0.4,1.5-0.8,2.2-1.2c2.4-1.2,4.6-2.7,6.8-4.4c3-2.4,6.3-4.4,9.5-6.6
		c1.1-0.8,2.3-1.5,3.4-2.3c0.3-0.2,0.6-0.7,0.6-1.1c0.2-1.6-1.5-3.4-3.2-2.9c-2.2,0.7-4.4,1.4-6.4,2.6c-2.7,1.6-5.5,3.1-8.3,4.5
		c-2.3,1.2-4.5,2.6-6.5,4.1c-0.9,0.6-1.8,1.3-2.7,1.8c-0.8,0.5-1.2,0.3-1.6-0.5c-0.6-1.1-0.7-2.3-0.3-3.6c1.8-5.5,3.7-10.9,6.4-16
		c0.6-1.1,1.1-2.2,1.6-3.4c0.2-0.5,0.3-1.1,0.3-1.6c-0.1-1.9-1.7-2.8-3.4-1.9c-0.7,0.4-1.3,1.1-1.8,1.8c-3.8,5.4-7.6,10.8-10.1,16.9
		c-0.3,0.8-0.8,1.6-1.1,2.5c-0.7,1.5-1.5,2.8-2.7,3.9c-0.7,0.7-1.1,1.5-1.5,2.4c-0.5,1.1-1.1,2-1.9,2.9c-4.1,4.4-7.6,9.2-11.2,14
		c-0.9,1.2-1.8,2.4-2.7,3.7c-0.5,0.7-1.1,1.2-1.9,1.6c-1.9,0.9-3.9,1.9-5.8,2.8c-0.2,0.1-0.4,0-0.6,0.1c0-0.1,0-0.2,0-0.2
		c0.2-0.1,0.3-0.2,0.5-0.3c1.9-1,3.9-1.9,5.8-2.9c0.6-0.3,1.2-0.8,1.6-1.4c3.7-4.8,7.3-9.5,10.9-14.3c1-1.3,2.1-2.4,3.1-3.6
		c0.6-0.8,1.2-1.6,1.7-2.5c0.6-1.2,1.3-2.2,2.1-3.1c0.7-0.8,1.4-1.7,1.9-2.7c0.9-1.6,1.6-3.3,2.3-5c2.5-5.6,6-10.5,9.5-15.5
		c0.4-0.6,1-1.1,1.7-1.5c1-0.6,2.1-0.7,3,0.1c1,0.8,1.3,1.8,1,3c-0.3,1.1-0.7,2.1-1.2,3.1c-1.6,3.5-3.3,7.1-4.8,10.6
		c-0.9,2-1.5,4.2-2.2,6.3c-0.4,1.2-0.4,2.3,0.1,3.4c0.2,0.5,0.6,0.7,1.1,0.3c0.7-0.5,1.5-0.9,2.1-1.4c3.6-2.9,7.7-4.8,11.8-7
		c1.1-0.6,2.2-1.1,3.3-1.8c2.1-1.3,4.4-2.1,6.7-2.8c2.4-0.7,4.2,1.7,3.8,3.7c-0.1,0.4-0.3,0.8-0.6,1.1c-0.8,0.6-1.7,1.2-2.5,1.8
		c-3.4,2.3-7,4.4-10.1,7c-2.8,2.3-6,4-9.1,5.7c-0.5,0.3-0.9,0.6-1.4,0.9c-0.1,0.1-0.2,0.3-0.3,0.5c0.2,0.1,0.5,0.3,0.6,0.2
		c1.1-0.5,2,0,2.8,0.6c1.1,0.7,2.1,1.5,2.6,2.8c0.3,1,0.2,1.9-0.2,2.8c-0.4,0.7-0.8,1.4-1.2,2c-0.3,0.4-0.3,0.7,0,1.1
		c2.2,2.2,1,6.2-1.9,7.3c-0.8,0.3-1.7,0.7-2.5,1.2c-0.6,0.3-1.1,0.7-1.1,1.5c0,0.2-0.2,0.5-0.4,0.7c-3.9,3.2-7.5,6.7-11.8,9.4
		c-1.6,1-3.3,2-5.1,2.8c-0.7,0.4-1.6,0.5-2.5,0.7c-0.3,0.1-0.7,0.2-1,0.4c-1.2,0.6-2.4,1.3-3.7,2c-0.2,0.1-0.5,0.1-0.8,0.2
		C32.1,82.1,32.1,82,32,81.9z"/>
</g>
</svg>
